<svg role="img" viewBox="0 0 24 24" xmlns="http://www.w3.org/2000/svg" id="Gitbook--Streamline-Simple-Icons" height="24" width="24">
  <desc>
    Gitbook Streamline Icon: https://streamlinehq.com
  </desc>
  <title>GitBook</title>
  <path d="M12.513 1.097c-0.645 0 -1.233 0.34 -2.407 1.017L3.675 5.82A7.233 7.233 0 0 0 0 12.063v0.236a7.233 7.233 0 0 0 3.667 6.238L7.69 20.86c2.354 1.36 3.531 2.042 4.824 2.042 1.292 0.001 2.47 -0.678 4.825 -2.038l4.251 -2.453c1.177 -0.68 1.764 -1.02 2.087 -1.579 0.323 -0.56 0.324 -1.24 0.323 -2.6v-2.63a1.04 1.04 0 0 0 -1.558 -0.903l-8.728 5.024c-0.587 0.337 -0.88 0.507 -1.201 0.507 -0.323 0 -0.616 -0.168 -1.204 -0.506l-5.904 -3.393c-0.297 -0.171 -0.446 -0.256 -0.565 -0.271a0.603 0.603 0 0 0 -0.634 0.368c-0.045 0.111 -0.045 0.282 -0.043 0.625 0.002 0.252 0 0.378 0.025 0.494 0.053 0.259 0.189 0.493 0.387 0.667 0.089 0.077 0.198 0.14 0.416 0.266l6.315 3.65c0.589 0.34 0.884 0.51 1.207 0.51 0.324 0 0.617 -0.17 1.206 -0.509l7.74 -4.469c0.202 -0.116 0.302 -0.172 0.377 -0.13 0.075 0.044 0.075 0.16 0.075 0.392v1.193c0 0.34 0.001 0.51 -0.08 0.649 -0.08 0.14 -0.227 0.224 -0.522 0.394l-6.382 3.685c-1.178 0.68 -1.767 1.02 -2.413 1.02 -0.646 0 -1.236 -0.34 -2.412 -1.022l-5.97 -3.452 -0.043 -0.025a4.106 4.106 0 0 1 -2.031 -3.52V11.7c0 -0.801 0.427 -1.541 1.12 -1.944a1.979 1.979 0 0 1 1.982 -0.001l4.946 2.858c1.174 0.679 1.762 1.019 2.407 1.02 0.645 0 1.233 -0.34 2.41 -1.017l7.482 -4.306a1.091 1.091 0 0 0 0 -1.891L14.92 2.11c-1.175 -0.675 -1.762 -1.013 -2.406 -1.013Z" fill="#000000" stroke-width="1"></path>
</svg>